<mxfile host="app.diagrams.net" modified="2023-06-28T09:59:00.416Z" agent="Mozilla/5.0 (Windows NT 10.0; Win64; x64) AppleWebKit/537.36 (KHTML, like Gecko) Chrome/115.0.0.0 Safari/537.36 Edg/115.0.0.0" etag="eaazXnwQ3uADgHOnZQfF" version="21.5.0" type="github">
  <diagram name="第 1 页" id="xOX6IJ81iyCop6l--fkv">
    <mxGraphModel dx="1234" dy="826" grid="1" gridSize="10" guides="1" tooltips="1" connect="1" arrows="1" fold="1" page="1" pageScale="1" pageWidth="827" pageHeight="1169" math="0" shadow="0">
      <root>
        <mxCell id="0" />
        <mxCell id="1" parent="0" />
      </root>
    </mxGraphModel>
  </diagram>
</mxfile>
